<svg xmlns="http://www.w3.org/2000/svg" viewBox="0 0 850.03 773.42"><defs><style>.cls-1,.cls-2{fill:#fff;}.cls-2{stroke:#1d1d1b;stroke-miterlimit:10;}</style></defs><g id="Layer_2" data-name="Layer 2"><circle class="cls-1" cx="86.03" cy="384.97" r="86.03"/><path class="cls-2" d="M129.13,395.45" transform="translate(-36.67 -115.03)"/><path class="cls-2" d="M129.13,604.1" transform="translate(-36.67 -115.03)"/></g><g id="Layer_3" data-name="Layer 3"><path class="cls-1" d="M498.35,115C312.61,115,172.83,234,127.85,397.12c0,0,46-.13,76.93,40.28l171.49-99.18a6.51,6.51,0,0,1,6.5,11.29L212.15,448.35A102.68,102.68,0,0,1,226.06,496H392.48c3.75,0,6.77,2,6.78,5.73h0c0,3.78-3.06,6.27-6.84,6.27H226a99.77,99.77,0,0,1-12.73,42.84L383.05,651.69a5.83,5.83,0,1,1-5.77,10.14L206.39,561.63c-33,44-79.47,42.32-79.47,42.32,44.15,173.16,206.85,284.5,371.43,284.5,215.3,0,388.35-169.39,388.35-389.26C886.7,287.06,712.87,115,498.35,115ZM688.26,564.21q-.6,2.07-1.77,2.07a83.68,83.68,0,0,0-16.07,2.36q-8.7,2.05-14.9,4T649,574.53q-1.17,0-1.77-1.62a9.11,9.11,0,0,1-.59-3.09V556.54c0-.78-.19-1.27-.59-1.47a61.35,61.35,0,0,1-10.61,8.7,69.18,69.18,0,0,1-14.75,7.52,44.23,44.23,0,0,1-15.34,3q-11.49,0-18.58-5.46a35.53,35.53,0,0,1-10.91-14.15,68.21,68.21,0,0,1-5.16-18.73,145.38,145.38,0,0,1-1.33-19.17V480.16q0-3-.29-7.67a19.06,19.06,0,0,0-2.07-8q-2.06-4.12-7.66-5a59.82,59.82,0,0,0-8.56-.89c-.4-.39-.64-1.52-.74-3.39a6.24,6.24,0,0,1,.74-4q11.2-.58,21.53-2.06a117.63,117.63,0,0,0,18-3.84c.79,0,1.52.79,2.21,2.36a10.09,10.09,0,0,1,1,3.54c-.59,1.18-1.09,3.74-1.48,7.67s-.59,8-.59,12.09v42.47q0,23,6.93,33.77t22,10.77a31.35,31.35,0,0,0,12.38-2.51,32.12,32.12,0,0,0,9.88-6.34c2.66-2.55,4-4.91,4-7.08V479q0-3-.29-7.23a19.2,19.2,0,0,0-1.77-7.23q-2.07-4.12-7.67-5a59.57,59.57,0,0,0-8.55-.89c-.4-.39-.64-1.52-.74-3.39a6.24,6.24,0,0,1,.74-4q11.21-.58,21.53-2.06a117.89,117.89,0,0,0,18-3.84c.78,0,1.47,1,2.06,2.95a17.36,17.36,0,0,1,.89,4.13q-.89,1.77-1.33,7.08t-.44,11.5v60.46q0,2.37.29,9.29a83.46,83.46,0,0,0,1.48,12.83q.89,3.54,6.64,4.13l8.7.89H688c.39.2.63.69.73,1.47a15.51,15.51,0,0,1,.15,1.77A17.88,17.88,0,0,1,688.26,564.21Z" transform="translate(-36.67 -115.03)"/></g></svg>